<svg width="24" height="19" viewBox="0 0 24 19" fill="none" xmlns="http://www.w3.org/2000/svg">
<path d="M15.9583 16.5H18.7292C19.464 16.5 20.1688 16.2849 20.6884 15.902C21.2081 15.5191 21.5 14.9998 21.5 14.4583V12.4167M21.5 6.58333V4.54167C21.5 4.00018 21.2081 3.48088 20.6884 3.09799C20.1688 2.7151 19.464 2.5 18.7292 2.5H15.9583M8.04167 16.5H5.27083C4.53596 16.5 3.83119 16.2849 3.31156 15.902C2.79193 15.5191 2.5 14.9998 2.5 14.4583V12.4167M2.5 6.58333V4.54167C2.5 4.00018 2.79193 3.48088 3.31156 3.09799C3.83119 2.7151 4.53596 2.5 5.27083 2.5H8.04167" stroke="#0F0907" stroke-width="5" stroke-linecap="round" stroke-linejoin="round"/>
</svg>
