<svg width="23" height="24" viewBox="0 0 23 24" fill="none" xmlns="http://www.w3.org/2000/svg">
<path d="M9.99437 15.2588L9.98944 15.2468C9.89027 15.2224 9.79167 15.1956 9.69373 15.1663L9.68634 15.1637C8.74916 14.883 7.88375 14.3879 7.15305 13.7143C6.34919 12.9743 5.73101 12.0404 5.3524 10.9939C4.9738 9.94749 4.84627 8.82027 4.98093 7.71059C5.11559 6.60091 5.50836 5.54245 6.12498 4.6275C6.74161 3.71255 7.56337 2.96889 8.51861 2.46137C9.47385 1.95384 10.5336 1.69787 11.6054 1.71575C12.6772 1.73364 13.7285 2.02484 14.6677 2.56398C15.6069 3.10311 16.4055 3.87381 16.9937 4.80887C17.582 5.74392 17.9421 6.81495 18.0427 7.92856C18.0748 8.28256 17.7963 8.57141 17.4554 8.57141C17.1153 8.57141 16.8434 8.28256 16.804 7.92941C16.6954 6.95509 16.3422 6.02795 15.7802 5.24172C15.2181 4.45549 14.4671 3.83803 13.603 3.45177C12.739 3.06551 11.7925 2.92413 10.8593 3.04192C9.92605 3.15972 9.03918 3.53252 8.28831 4.12263C7.53743 4.71274 6.94916 5.49925 6.58297 6.40266C6.21679 7.30606 6.08566 8.29433 6.20284 9.26757C6.32002 10.2408 6.68137 11.1645 7.25034 11.9453C7.81932 12.7261 8.57576 13.3363 9.44319 13.7143L9.47605 13.7288C9.64034 13.7991 9.80955 13.8608 9.98205 13.9148C10.1274 13.5483 10.3902 13.2456 10.7255 13.0586C11.0608 12.8715 11.4479 12.8116 11.8208 12.8891C12.1937 12.9665 12.5293 13.1766 12.7704 13.4833C13.0115 13.7901 13.1431 14.1747 13.1429 14.5714C13.1433 14.9654 13.0136 15.3475 12.7756 15.6534C12.5377 15.9593 12.2061 16.1703 11.8365 16.251C11.467 16.3317 11.082 16.2771 10.7465 16.0964C10.411 15.9157 10.1454 15.6199 9.99437 15.2588ZM9.18444 16.3491C7.7255 15.8749 6.4318 14.9648 5.46337 13.7314C4.8635 13.8047 4.31031 14.1054 3.90887 14.5763C3.50743 15.0471 3.28569 15.6555 3.28577 16.2857V16.8986C3.28577 20.0854 6.74398 22.2857 11.5001 22.2857C16.2561 22.2857 19.7143 19.9646 19.7143 16.8986V16.2857C19.7143 15.6037 19.4547 14.9497 18.9926 14.4674C18.5304 13.9852 17.9036 13.7143 17.2501 13.7143H14.2559C14.4497 14.3914 14.4081 15.1183 14.1386 15.7666C13.869 16.4149 13.3888 16.9431 12.7825 17.2581C12.1762 17.5731 11.4829 17.6546 10.8246 17.4883C10.1664 17.322 9.58551 16.9186 9.18444 16.3491ZM15.6072 8.57141C15.6072 7.27541 15.0568 6.11399 14.1853 5.32799C13.748 4.93435 13.2361 4.64138 12.6829 4.46818C12.1298 4.29499 11.5478 4.24547 10.9751 4.32286C10.4024 4.40025 9.85172 4.6028 9.35909 4.91731C8.86646 5.23181 8.44293 5.65118 8.11614 6.14806C7.78936 6.64493 7.56667 7.20813 7.46262 7.80089C7.35856 8.39366 7.37547 9.00265 7.51226 9.58813C7.64904 10.1736 7.90261 10.7224 8.25642 11.1987C8.61023 11.675 9.05633 12.0681 9.56559 12.3523C10.0942 11.8489 10.7844 11.5703 11.5001 11.5714C12.216 11.5704 12.9063 11.849 13.4353 12.3523C14.0916 11.9864 14.6403 11.4415 15.0228 10.7755C15.4053 10.1096 15.6073 9.3478 15.6072 8.57141Z" fill="#120805"/>
</svg>
