<svg width="20" height="20" viewBox="0 0 20 20" fill="none" xmlns="http://www.w3.org/2000/svg">
<path d="M5.83329 15V5.87667C5.83323 5.68277 5.89758 5.49435 6.01623 5.34099C6.13487 5.18763 6.30109 5.07802 6.48879 5.02938C6.67649 4.98074 6.87502 4.99582 7.05322 5.07226C7.23141 5.14869 7.37917 5.28215 7.47329 5.45167L12.5266 14.5483C12.6207 14.7179 12.7685 14.8513 12.9467 14.9277C13.1249 15.0042 13.3234 15.0193 13.5111 14.9706C13.6988 14.922 13.865 14.8124 13.9837 14.659C14.1023 14.5057 14.1667 14.3172 14.1666 14.1233V5M4.16663 8.33333H15.8333M4.16663 11.6667H15.8333" stroke="white" stroke-width="2" stroke-linecap="round" stroke-linejoin="round"/>
</svg>
