<svg width="15" height="15" viewBox="0 0 15 15" fill="none" xmlns="http://www.w3.org/2000/svg">
<path d="M7.95434 2.30438C8.01073 2.24471 8.05481 2.17452 8.08407 2.09781C8.11333 2.02111 8.1272 1.93939 8.12488 1.85733C8.12255 1.77526 8.10409 1.69446 8.07054 1.61953C8.03699 1.5446 7.98901 1.47701 7.92935 1.42063C7.86968 1.36424 7.79948 1.32016 7.72278 1.2909C7.64607 1.26164 7.56436 1.24778 7.48229 1.2501C7.40023 1.25242 7.31943 1.27088 7.2445 1.30443C7.16957 1.33798 7.10198 1.38596 7.04559 1.44563L1.73309 7.07063C1.62338 7.18667 1.56226 7.34031 1.56226 7.5C1.56226 7.6597 1.62338 7.81333 1.73309 7.92938L7.04559 13.555C7.10161 13.616 7.16918 13.6652 7.24439 13.6999C7.31959 13.7345 7.40093 13.7538 7.48367 13.7568C7.56642 13.7597 7.64893 13.7462 7.7264 13.717C7.80387 13.6878 7.87477 13.6434 7.93497 13.5866C7.99517 13.5298 8.04347 13.4615 8.07708 13.3858C8.11068 13.3102 8.12891 13.2286 8.13072 13.1458C8.13252 13.063 8.11786 12.9807 8.08758 12.9036C8.0573 12.8266 8.01201 12.7563 7.95434 12.6969L3.04684 7.5L7.95434 2.30438Z" fill="#020202"/>
</svg>
