<svg width="11" height="11" viewBox="0 0 11 11" fill="none" xmlns="http://www.w3.org/2000/svg">
<g clip-path="url(#clip0_22_25)">
<path d="M3.66919 1.13695C3.5403 1.26462 3.4674 1.43826 3.46652 1.61967C3.46563 1.80109 3.53684 1.97543 3.66447 2.10435L7.03454 5.50746L3.63144 8.87753C3.50618 9.00596 3.43638 9.17844 3.43706 9.35783C3.43775 9.53722 3.50886 9.70917 3.63509 9.83664C3.76132 9.96411 3.93257 10.0369 4.11194 10.0393C4.29132 10.0418 4.46448 9.97365 4.59412 9.84965L8.48329 5.99824C8.61217 5.87056 8.68507 5.69693 8.68596 5.51551C8.68684 5.3341 8.61564 5.15976 8.48801 5.03083L4.63659 1.14167C4.50892 1.01278 4.33528 0.939881 4.15387 0.938996C3.97245 0.938111 3.79811 1.00932 3.66919 1.13695Z" fill="white"/>
</g>
<defs>
<clipPath id="clip0_22_25">
<rect width="10" height="10" fill="white" transform="translate(11 0.0533838) scale(1.09467) rotate(90.2794)"/>
</clipPath>
</defs>
</svg>
