<svg width="15" height="16" viewBox="0 0 15 16" fill="none" xmlns="http://www.w3.org/2000/svg">
<path d="M4.375 12V4.70133C4.37496 4.54622 4.42322 4.39548 4.5122 4.27279C4.60118 4.1501 4.72585 4.06242 4.86662 4.0235C5.0074 3.98459 5.1563 3.99666 5.28994 4.0578C5.42359 4.11895 5.53441 4.22572 5.605 4.36133L9.395 11.6387C9.46559 11.7743 9.57641 11.881 9.71006 11.9422C9.8437 12.0033 9.99261 12.0154 10.1334 11.9765C10.2741 11.9376 10.3988 11.8499 10.4878 11.7272C10.5768 11.6045 10.625 11.4538 10.625 11.2987V4M3.125 6.66667H11.875M3.125 9.33333H11.875" stroke="black" stroke-width="2" stroke-linecap="round" stroke-linejoin="round"/>
</svg>
