<svg width="24" height="24" viewBox="0 0 24 24" fill="none" xmlns="http://www.w3.org/2000/svg">
<path d="M13.5 3.375C13.5 2.87772 13.342 2.40081 13.0607 2.04917C12.7794 1.69754 12.3978 1.5 12 1.5C11.6022 1.5 11.2206 1.69754 10.9393 2.04917C10.658 2.40081 10.5 2.87772 10.5 3.375C10.5 3.87228 10.658 4.34919 10.9393 4.70083C11.2206 5.05246 11.6022 5.25 12 5.25C12.3978 5.25 12.7794 5.05246 13.0607 4.70083C13.342 4.34919 13.5 3.87228 13.5 3.375ZM5.4 9.75C5.79782 9.75 6.17936 9.55246 6.46066 9.20083C6.74196 8.84919 6.9 8.37228 6.9 7.875C6.9 7.37772 6.74196 6.90081 6.46066 6.54917C6.17936 6.19754 5.79782 6 5.4 6C5.00218 6 4.62064 6.19754 4.33934 6.54917C4.05804 6.90081 3.9 7.37772 3.9 7.875C3.9 8.37228 4.05804 8.84919 4.33934 9.20083C4.62064 9.55246 5.00218 9.75 5.4 9.75ZM1.2 19.5C0.53625 19.5 0 20.1703 0 21C0 21.8297 0.53625 22.5 1.2 22.5H22.8C23.4638 22.5 24 21.8297 24 21C24 20.1703 23.4638 19.5 22.8 19.5H1.2ZM18.6 9.75C18.9978 9.75 19.3794 9.55246 19.6607 9.20083C19.942 8.84919 20.1 8.37228 20.1 7.875C20.1 7.37772 19.942 6.90081 19.6607 6.54917C19.3794 6.19754 18.9978 6 18.6 6C18.2022 6 17.8206 6.19754 17.5393 6.54917C17.258 6.90081 17.1 7.37772 17.1 7.875C17.1 8.37228 17.258 8.84919 17.5393 9.20083C17.8206 9.55246 18.2022 9.75 18.6 9.75ZM7.5 14.6953L8.50875 17.0344C8.745 17.5828 9.28875 17.7844 9.7275 17.4938C10.1663 17.2031 10.3275 16.5188 10.095 15.9703L8.73375 12.8063C8.7975 12.7266 8.85375 12.6375 8.895 12.5344L9.9 10.1953V12.75C9.9 13.5797 10.4363 14.25 11.1 14.25H12.9C13.5638 14.25 14.1 13.5797 14.1 12.75V10.1953L15.1088 12.5344C15.1538 12.6375 15.2063 12.7266 15.27 12.8063L13.9088 15.9703C13.6725 16.5188 13.8375 17.1984 14.2763 17.4938C14.715 17.7891 15.2588 17.5828 15.495 17.0344L16.5 14.6953V16.5C16.5 17.3297 17.0363 18 17.7 18H19.5C20.1638 18 20.7 17.3297 20.7 16.5V14.6953L21.7088 17.0344C21.945 17.5828 22.4888 17.7844 22.9275 17.4938C23.3663 17.2031 23.5275 16.5188 23.295 15.9703L21.8738 12.675C21.3 11.3391 20.1825 10.5047 18.9675 10.5047H18.2325C17.6213 10.5047 17.0363 10.7156 16.53 11.0953L15.27 8.175C14.6963 6.83906 13.5788 6.00469 12.3638 6.00469H11.6325C10.4175 6.00469 9.30375 6.83906 8.72625 8.175L7.46625 11.0953C6.96 10.7156 6.375 10.5047 5.76375 10.5047H5.0325C3.8175 10.5047 2.70375 11.3391 2.12625 12.675L0.70875 15.9656C0.4725 16.5141 0.6375 17.1938 1.07625 17.4891C1.515 17.7844 2.05875 17.5781 2.295 17.0297L3.3 14.6953V16.5C3.3 17.3297 3.83625 18 4.5 18H6.3C6.96375 18 7.5 17.3297 7.5 16.5V14.6953Z" fill="#52896E"/>
</svg>
