<svg width="15" height="15" viewBox="0 0 15 15" fill="none" xmlns="http://www.w3.org/2000/svg">
<path d="M4.375 11.25V4.4075C4.37496 4.26208 4.42322 4.12076 4.5122 4.00574C4.60118 3.89072 4.72585 3.80852 4.86662 3.77204C5.0074 3.73556 5.1563 3.74687 5.28994 3.80419C5.42359 3.86152 5.53441 3.96161 5.605 4.08875L9.395 10.9113C9.46559 11.0384 9.57641 11.1385 9.71006 11.1958C9.8437 11.2531 9.99261 11.2644 10.1334 11.228C10.2741 11.1915 10.3988 11.1093 10.4878 10.9943C10.5768 10.8792 10.625 10.7379 10.625 10.5925V3.75M3.125 6.25H11.875M3.125 8.75H11.875" stroke="#52896E" stroke-width="2" stroke-linecap="round" stroke-linejoin="round"/>
</svg>
