<svg width="24" height="24" viewBox="0 0 24 24" fill="none" xmlns="http://www.w3.org/2000/svg">
<g clip-path="url(#clip0_39_6)">
<path d="M12.8571 23.1411V14.1411C12.8571 13.5728 13.0828 13.0278 13.4847 12.6259C13.8865 12.224 14.4316 11.9983 14.9999 11.9983C15.5682 11.9983 16.1133 12.224 16.5151 12.6259C16.917 13.0278 17.1428 13.5728 17.1428 14.1411V18.8554H20.5713C21.4807 18.8554 22.3527 19.2166 22.9957 19.8596C23.6387 20.5026 23.9999 21.3747 23.9999 22.284V23.1411" fill="#52896E"/>
<path fill-rule="evenodd" clip-rule="evenodd" d="M0.0531014 7.58399C0.0550328 6.49221 0.292721 5.41372 0.749911 4.42228C1.2071 3.43083 1.87301 2.54981 2.70211 1.83946C3.5312 1.12912 4.50392 0.606196 5.55375 0.306461C6.60359 0.00672546 7.70577 -0.062755 8.78493 0.102771C9.86409 0.268296 10.8948 0.664924 11.8065 1.26553C12.7182 1.86614 13.4895 2.65656 14.0676 3.58274C14.6457 4.50893 15.0169 5.54903 15.1559 6.63193C15.295 7.71482 15.1985 8.81497 14.8731 9.85714C13.7589 9.89013 12.7014 10.356 11.9249 11.1558C11.1485 11.9556 10.7142 13.0264 10.7142 14.1411V14.5166C9.55957 15.0296 8.29498 15.246 7.03541 15.146C5.77583 15.046 4.56122 14.6329 3.50194 13.9441C2.44267 13.2553 1.57233 12.3127 0.970013 11.2019C0.3677 10.0912 0.0525141 8.84753 0.0531014 7.58399ZM7.63539 2.03314C8.22853 2.03314 8.70682 2.51314 8.70682 3.10457V3.58971C9.12828 3.68627 9.51852 3.88776 9.8413 4.17547C10.1641 4.46318 10.4089 4.82778 10.5531 5.23542C10.6 5.36813 10.6204 5.50879 10.613 5.64936C10.6055 5.78993 10.5705 5.92766 10.5099 6.05469C10.4492 6.18172 10.3641 6.29556 10.2595 6.38972C10.1548 6.48387 10.0327 6.55648 9.89996 6.60342C9.76725 6.65036 9.62659 6.6707 9.48602 6.66328C9.34545 6.65586 9.20772 6.62082 9.08069 6.56017C8.95366 6.49952 8.83982 6.41445 8.74567 6.3098C8.65152 6.20516 8.5789 6.08299 8.53196 5.95028C8.50288 5.86804 8.44902 5.79684 8.37779 5.74649C8.30656 5.69614 8.22147 5.66911 8.13424 5.66914H6.9771C6.91312 5.67025 6.85175 5.69471 6.80455 5.73792C6.75735 5.78113 6.72757 5.84011 6.72083 5.90375C6.71409 5.96738 6.73084 6.03129 6.76794 6.08343C6.80504 6.13557 6.85992 6.17236 6.92224 6.18685L8.68282 6.57085C9.25199 6.696 9.76162 7.01114 10.1279 7.46444C10.4941 7.91774 10.6952 8.4822 10.698 9.06496C10.7008 9.64773 10.5051 10.2141 10.1432 10.6709C9.78135 11.1277 9.27476 11.4477 8.70682 11.5783V12.0651C8.70682 12.3493 8.59393 12.6218 8.393 12.8228C8.19207 13.0237 7.91955 13.1366 7.63539 13.1366C7.35123 13.1366 7.0787 13.0237 6.87777 12.8228C6.67684 12.6218 6.56396 12.3493 6.56396 12.0651V11.58C6.143 11.4827 5.75333 11.281 5.43094 10.9933C5.10855 10.7057 4.86384 10.3415 4.71939 9.93428C4.62459 9.66626 4.64015 9.37156 4.76264 9.11501C4.88512 8.85846 5.10451 8.66108 5.37253 8.56628C5.64055 8.47148 5.93525 8.48704 6.1918 8.60953C6.44835 8.73202 6.64573 8.9514 6.74053 9.21942C6.76982 9.30152 6.82374 9.37258 6.89492 9.4229C6.9661 9.47322 7.05107 9.50034 7.13824 9.50057H8.13424C8.23693 9.49804 8.3352 9.45827 8.41075 9.38866C8.48629 9.31906 8.53395 9.22436 8.54486 9.12222C8.55577 9.02008 8.52917 8.91746 8.47003 8.83347C8.41088 8.74949 8.32323 8.68986 8.22339 8.66571L6.46453 8.27999C5.91972 8.16125 5.43309 7.85689 5.08789 7.41899C4.7427 6.98108 4.56038 6.43684 4.57212 5.87936C4.58387 5.32188 4.78895 4.78581 5.15228 4.36283C5.51562 3.93985 6.01463 3.65626 6.56396 3.56057V3.10457C6.56396 2.51142 7.04396 2.03314 7.63539 2.03314ZM12.8571 14.1411V23.9983H24V22.284C24 21.3747 23.6387 20.5026 22.9958 19.8596C22.3528 19.2166 21.4807 18.8554 20.5714 18.8554H17.1428V14.1411C17.1428 13.5728 16.9171 13.0278 16.5152 12.6259C16.1133 12.224 15.5683 11.9983 15 11.9983C14.4316 11.9983 13.8866 12.224 13.4847 12.6259C13.0829 13.0278 12.8571 13.5728 12.8571 14.1411Z" fill="#52896E"/>
</g>
<defs>
<clipPath id="clip0_39_6">
<rect width="24" height="24" fill="white"/>
</clipPath>
</defs>
</svg>
