<svg width="25" height="25" viewBox="0 0 25 25" fill="none" xmlns="http://www.w3.org/2000/svg">
<path d="M12.5 12.5C11.3542 12.5 10.3733 12.092 9.55731 11.276C8.74134 10.4601 8.33335 9.47916 8.33335 8.33332C8.33335 7.18749 8.74134 6.20659 9.55731 5.39061C10.3733 4.57464 11.3542 4.16666 12.5 4.16666C13.6459 4.16666 14.6268 4.57464 15.4427 5.39061C16.2587 6.20659 16.6667 7.18749 16.6667 8.33332C16.6667 9.47916 16.2587 10.4601 15.4427 11.276C14.6268 12.092 13.6459 12.5 12.5 12.5ZM4.16669 20.8333V17.9167C4.16669 17.3264 4.31877 16.784 4.62294 16.2896C4.9271 15.7951 5.33058 15.4174 5.83335 15.1562C6.90974 14.618 8.00349 14.2146 9.1146 13.9458C10.2257 13.6771 11.3542 13.5424 12.5 13.5417C13.6459 13.5417 14.7743 13.6764 15.8854 13.9458C16.9965 14.2153 18.0903 14.6187 19.1667 15.1562C19.6702 15.4167 20.074 15.7944 20.3781 16.2896C20.6823 16.7847 20.834 17.3271 20.8334 17.9167V20.8333H4.16669Z" fill="#52896E"/>
</svg>
