<svg width="26" height="23" viewBox="0 0 26 23" fill="none" xmlns="http://www.w3.org/2000/svg">
<g clip-path="url(#clip0_22_15)">
<path fill-rule="evenodd" clip-rule="evenodd" d="M16.25 18.2083C16.2501 18.6919 16.0437 19.1576 15.672 19.5122C15.3003 19.8667 14.7909 20.0839 14.2458 20.1202L14.0833 20.125H11.9166C11.37 20.1251 10.8435 19.9425 10.4427 19.6137C10.0419 19.2849 9.79637 18.8343 9.75537 18.3521L9.74996 18.2083H16.25ZM13 1.91666C14.9662 1.91663 16.8556 2.59218 18.2695 3.80081C19.6835 5.00944 20.5115 6.65666 20.579 8.39499L20.5833 8.62499V12.2322L22.5571 15.7243C22.6433 15.8767 22.6864 16.0453 22.6828 16.2156C22.6792 16.3859 22.6289 16.553 22.5364 16.7024C22.4438 16.8518 22.3117 16.9791 22.1514 17.0735C21.9911 17.1679 21.8072 17.2265 21.6157 17.2442L21.4911 17.25H4.50879C4.31614 17.25 4.12634 17.2088 3.95566 17.1297C3.78499 17.0507 3.63853 16.9362 3.52883 16.7961C3.41913 16.656 3.34946 16.4944 3.3258 16.3253C3.30213 16.1562 3.32518 15.9845 3.39296 15.8249L3.44279 15.7243L5.41662 12.2322V8.62499C5.41662 6.84583 6.21558 5.13954 7.63773 3.88148C9.05988 2.62343 10.9887 1.91666 13 1.91666ZM13 3.83332C11.6041 3.83339 10.2622 4.31013 9.25403 5.16412C8.24587 6.01811 7.64929 7.18342 7.58871 8.41703L7.58329 8.62499V12.2322C7.5833 12.4698 7.53334 12.7054 7.43596 12.9269L7.35471 13.0899L6.08721 15.3333H19.9138L18.6463 13.0889C18.5261 12.8764 18.4515 12.646 18.4264 12.4094L18.4166 12.2322V8.62499C18.4166 7.35416 17.8459 6.13538 16.8301 5.23677C15.8143 4.33816 14.4365 3.83332 13 3.83332Z" fill="#070301"/>
</g>
<defs>
<clipPath id="clip0_22_15">
<rect width="26" height="23" fill="white"/>
</clipPath>
</defs>
</svg>
