<svg width="45" height="45" viewBox="0 0 45 45" fill="none" xmlns="http://www.w3.org/2000/svg">
<path d="M5.625 38.6063L12.3563 31.875H33.75C34.7446 31.875 35.6984 31.4799 36.4016 30.7766C37.1049 30.0734 37.5 29.1196 37.5 28.125V11.25C37.5 10.2554 37.1049 9.30161 36.4016 8.59835C35.6984 7.89509 34.7446 7.5 33.75 7.5H9.375C8.38044 7.5 7.42661 7.89509 6.72335 8.59835C6.02009 9.30161 5.625 10.2554 5.625 11.25V38.6063ZM5.625 41.25H3.75V11.25C3.75 9.75816 4.34263 8.32742 5.39752 7.27252C6.45242 6.21763 7.88316 5.625 9.375 5.625H33.75C35.2418 5.625 36.6726 6.21763 37.7275 7.27252C38.7824 8.32742 39.375 9.75816 39.375 11.25V28.125C39.375 29.6168 38.7824 31.0476 37.7275 32.1025C36.6726 33.1574 35.2418 33.75 33.75 33.75H13.125L5.625 41.25Z" fill="#52896E"/>
</svg>
