<svg width="28" height="28" viewBox="0 0 28 28" fill="none" xmlns="http://www.w3.org/2000/svg">
<path d="M12.167 17.802L12.161 17.788C12.0403 17.7595 11.9202 17.7282 11.801 17.694L11.792 17.691C10.6511 17.3636 9.59754 16.7859 8.708 16C7.72939 15.1367 6.97682 14.0471 6.51591 12.8263C6.055 11.6054 5.89974 10.2903 6.06368 8.99571C6.22761 7.70108 6.70576 6.4662 7.45644 5.39876C8.20711 4.33132 9.20751 3.46372 10.3704 2.87161C11.5333 2.2795 12.8234 1.98086 14.1282 2.00172C15.433 2.02259 16.7129 2.36233 17.8563 2.99132C18.9997 3.62032 19.9718 4.51946 20.688 5.61036C21.4041 6.70126 21.8425 7.95079 21.965 9.25C22.004 9.663 21.665 10 21.25 10C20.836 10 20.505 9.663 20.457 9.251C20.3248 8.11429 19.8948 7.03263 19.2106 6.11536C18.5263 5.19809 17.6121 4.47772 16.5602 4.02708C15.5082 3.57644 14.356 3.4115 13.2199 3.54892C12.0838 3.68635 11.0042 4.12128 10.09 4.80975C9.17594 5.49822 8.45979 6.41581 8.01399 7.46978C7.5682 8.52375 7.40856 9.67673 7.55122 10.8122C7.69388 11.9476 8.13377 13.0253 8.82644 13.9362C9.51911 14.8471 10.44 15.5591 11.496 16L11.536 16.017C11.736 16.099 11.942 16.171 12.152 16.234C12.329 15.8063 12.6489 15.4532 13.0571 15.235C13.4653 15.0168 13.9365 14.9469 14.3905 15.0373C14.8444 15.1276 15.253 15.3727 15.5465 15.7306C15.84 16.0885 16.0003 16.5371 16 17C16.0004 17.4596 15.8426 17.9054 15.5529 18.2623C15.2632 18.6192 14.8595 18.8654 14.4096 18.9595C13.9597 19.0537 13.4911 18.99 13.0827 18.7792C12.6742 18.5683 12.3509 18.2233 12.167 17.802ZM11.181 19.074C9.4049 18.5208 7.82995 17.459 6.651 16.02C5.92071 16.1055 5.24727 16.4563 4.75856 17.0057C4.26985 17.555 3.99991 18.2647 4 19V19.715C4 23.433 8.21 26 14 26C19.79 26 24 23.292 24 19.715V19C24 18.2043 23.6839 17.4413 23.1213 16.8787C22.5587 16.3161 21.7956 16 21 16H17.355C17.5909 16.79 17.5403 17.638 17.2121 18.3944C16.884 19.1507 16.2993 19.767 15.5613 20.1345C14.8232 20.502 13.9791 20.5971 13.1777 20.4031C12.3764 20.2091 11.6693 19.7384 11.181 19.074ZM19 10C19 8.488 18.33 7.133 17.269 6.216C16.7366 5.75676 16.1134 5.41496 15.44 5.2129C14.7666 5.01084 14.0582 4.95307 13.3609 5.04335C12.6637 5.13364 11.9933 5.36995 11.3936 5.73687C10.7939 6.10379 10.2783 6.59306 9.88046 7.17275C9.48264 7.75243 9.21154 8.4095 9.08486 9.10106C8.95818 9.79261 8.97878 10.5031 9.14529 11.1862C9.31181 11.8692 9.62051 12.5095 10.0512 13.0652C10.482 13.6208 11.025 14.0794 11.645 14.411C12.2886 13.8237 13.1287 13.4987 14 13.5C14.8715 13.4988 15.712 13.8238 16.356 14.411C17.1549 13.9842 17.8229 13.3484 18.2886 12.5715C18.7543 11.7946 19.0002 10.9058 19 10Z" fill="#52896E"/>
</svg>
