<svg width="15" height="15" viewBox="0 0 15 15" fill="none" xmlns="http://www.w3.org/2000/svg">
<path d="M3.125 13.75V10.625L2.5 10V7.5C2.5 7.33424 2.56585 7.17527 2.68306 7.05806C2.80027 6.94085 2.95924 6.875 3.125 6.875H5.625C5.79076 6.875 5.94973 6.94085 6.06694 7.05806C6.18415 7.17527 6.25 7.33424 6.25 7.5V10L5.625 10.625V13.75M9.375 13.75V11.25H8.125L9.375 7.5C9.375 7.33424 9.44085 7.17527 9.55806 7.05806C9.67527 6.94085 9.83424 6.875 10 6.875H11.25C11.4158 6.875 11.5747 6.94085 11.6919 7.05806C11.8092 7.17527 11.875 7.33424 11.875 7.5L13.125 11.25H11.875V13.75M3.125 3.125C3.125 3.45652 3.2567 3.77446 3.49112 4.00888C3.72554 4.2433 4.04348 4.375 4.375 4.375C4.70652 4.375 5.02446 4.2433 5.25888 4.00888C5.4933 3.77446 5.625 3.45652 5.625 3.125C5.625 2.79348 5.4933 2.47554 5.25888 2.24112C5.02446 2.0067 4.70652 1.875 4.375 1.875C4.04348 1.875 3.72554 2.0067 3.49112 2.24112C3.2567 2.47554 3.125 2.79348 3.125 3.125ZM9.375 3.125C9.375 3.45652 9.5067 3.77446 9.74112 4.00888C9.97554 4.2433 10.2935 4.375 10.625 4.375C10.9565 4.375 11.2745 4.2433 11.5089 4.00888C11.7433 3.77446 11.875 3.45652 11.875 3.125C11.875 2.79348 11.7433 2.47554 11.5089 2.24112C11.2745 2.0067 10.9565 1.875 10.625 1.875C10.2935 1.875 9.97554 2.0067 9.74112 2.24112C9.5067 2.47554 9.375 2.79348 9.375 3.125Z" stroke="#52896E" stroke-width="2" stroke-linecap="round" stroke-linejoin="round"/>
</svg>
