<svg width="25" height="25" viewBox="0 0 25 25" fill="none" xmlns="http://www.w3.org/2000/svg">
<path d="M3.40875 4.16625C2.4675 4.16625 1.705 4.9125 1.705 5.83375V19.1663C1.705 20.0875 2.4675 20.8337 3.40875 20.8337H21.5913C22.5325 20.8337 23.295 20.0875 23.295 19.1663V5.83375C23.295 4.9125 22.5325 4.16625 21.5913 4.16625H3.40875ZM21.5913 2.5C23.4738 2.5 25 3.9925 25 5.83375V19.1663C25 21.0075 23.4738 22.5 21.5913 22.5H3.40875C1.52625 22.5 0 21.0075 0 19.1663V5.83375C0 3.9925 1.52625 2.5 3.40875 2.5H21.5913ZM10.2087 16.4163H5C4.88926 16.4149 4.77934 16.4355 4.67653 16.4767C4.57373 16.5179 4.48006 16.5789 4.40088 16.6564C4.3217 16.7338 4.25856 16.8261 4.21509 16.928C4.17161 17.0298 4.14864 17.1393 4.1475 17.25C4.1475 17.71 4.52875 18.0837 5 18.0837H10.2087C10.3194 18.0849 10.4292 18.0643 10.5318 18.023C10.6345 17.9817 10.728 17.9206 10.8071 17.8432C10.8861 17.7658 10.9491 17.6735 10.9925 17.5718C11.0359 17.47 11.0589 17.3606 11.06 17.25C11.0589 17.1394 11.0359 17.03 10.9925 16.9282C10.9491 16.8265 10.8861 16.7342 10.8071 16.6568C10.728 16.5794 10.6345 16.5183 10.5318 16.477C10.4292 16.4357 10.3194 16.4151 10.2087 16.4163ZM17.1875 6.66625C15.2825 6.66625 13.7312 8.155 13.7312 10C13.7312 10.9663 14.1563 11.835 14.8363 12.4438C13.5488 13.2037 12.69 14.5725 12.69 16.1363C12.69 16.5825 12.76 17.0212 12.8963 17.44C13.04 17.8775 13.52 18.12 13.9675 17.98C14.0731 17.9484 14.1714 17.896 14.2565 17.826C14.3417 17.7559 14.412 17.6696 14.4635 17.5721C14.5149 17.4746 14.5464 17.3678 14.5561 17.258C14.5658 17.1482 14.5535 17.0375 14.52 16.9325C14.4364 16.6754 14.3943 16.4066 14.395 16.1363C14.395 14.6675 15.6412 13.47 17.1875 13.47C18.7337 13.47 19.9812 14.6675 19.9812 16.1363C19.9812 16.3525 19.955 16.5638 19.9025 16.7688C19.8762 16.8759 19.8714 16.9872 19.8884 17.0962C19.9055 17.2052 19.944 17.3097 20.0018 17.4037C20.0596 17.4977 20.1355 17.5793 20.2251 17.6436C20.3147 17.708 20.4162 17.7539 20.5238 17.7787C20.7411 17.8333 20.9713 17.8001 21.1644 17.6865C21.3576 17.5728 21.4983 17.3878 21.5563 17.1713C21.6425 16.8338 21.685 16.4875 21.685 16.1363C21.685 14.5725 20.8263 13.2037 19.5387 12.4412C20.2188 11.835 20.6437 10.9663 20.6437 10C20.6437 8.155 19.0938 6.66625 17.1875 6.66625ZM10.2087 12.0413H5C4.88926 12.0399 4.77934 12.0605 4.67653 12.1017C4.57373 12.1429 4.48006 12.2039 4.40088 12.2814C4.3217 12.3588 4.25856 12.4511 4.21509 12.553C4.17161 12.6548 4.14864 12.7643 4.1475 12.875C4.1475 13.335 4.52875 13.7087 5 13.7087H10.2087C10.3194 13.7099 10.4292 13.6893 10.5318 13.648C10.6345 13.6067 10.728 13.5456 10.8071 13.4682C10.8861 13.3908 10.9491 13.2985 10.9925 13.1968C11.0359 13.095 11.0589 12.9856 11.06 12.875C11.0589 12.7644 11.0359 12.655 10.9925 12.5532C10.9491 12.4515 10.8861 12.3592 10.8071 12.2818C10.728 12.2044 10.6345 12.1433 10.5318 12.102C10.4292 12.0607 10.3194 12.0401 10.2087 12.0413ZM17.1875 8.33375C18.1588 8.33375 18.94 9.08375 18.94 10C18.94 10.9175 18.1588 11.6663 17.1875 11.6663C16.2162 11.6663 15.435 10.9163 15.435 10C15.435 9.0825 16.2162 8.33375 17.1875 8.33375ZM10.2087 7.66625H5C4.88926 7.66493 4.77934 7.68546 4.67653 7.72666C4.57373 7.76786 4.48006 7.82893 4.40088 7.90637C4.3217 7.9838 4.25856 8.07609 4.21509 8.17796C4.17161 8.27982 4.14864 8.38925 4.1475 8.5C4.1475 8.96 4.52875 9.33375 5 9.33375H10.2087C10.3194 9.33491 10.4292 9.31426 10.5318 9.27298C10.6345 9.2317 10.728 9.17061 10.8071 9.09319C10.8861 9.01577 10.9491 8.92353 10.9925 8.82175C11.0359 8.71997 11.0589 8.61064 11.06 8.5C11.0589 8.38936 11.0359 8.28003 10.9925 8.17825C10.9491 8.07647 10.8861 7.98423 10.8071 7.90681C10.728 7.82939 10.6345 7.7683 10.5318 7.72702C10.4292 7.68575 10.3194 7.66509 10.2087 7.66625Z" fill="#52896E"/>
</svg>
