<svg width="48" height="48" viewBox="0 0 48 48" fill="none" xmlns="http://www.w3.org/2000/svg">
<path d="M14.04 26C9.62 26 6.04 29.58 6.04 34C6.04 38.42 9.62 42 14.04 42C18.46 42 22.04 38.42 22.04 34C22.04 29.58 18.46 26 14.04 26ZM14.04 38C11.84 38 10.04 36.2 10.04 34C10.04 31.8 11.84 30 14.04 30C16.24 30 18.04 31.8 18.04 34C18.04 36.2 16.24 38 14.04 38ZM26 26V42H42V26H26ZM38 38H30V30H38V38ZM14 4L4 22H24L14 4ZM14 12.24L17.2 18H10.8L14 12.24ZM38.5 5C36.38 5 34.88 6.12 34 7.34C33.12 6.12 31.62 5 29.5 5C26.38 5 24 7.56 24 10.5C24 14.5 28.84 17.34 34 22C39.16 17.34 44 14.5 44 10.5C44 7.56 41.62 5 38.5 5ZM34 16.7C31.1 14.26 28 11.9 28 10.5C28 9.64 28.7 9 29.5 9C30.12 9 30.54 9.34 30.96 9.74L34 12.6L37.04 9.74C37.46 9.34 37.88 9 38.5 9C39.3 9 40 9.64 40 10.5C40 11.9 36.9 14.26 34 16.7Z" fill="#52896E"/>
</svg>
