<svg width="19" height="18" viewBox="0 0 19 18" fill="none" xmlns="http://www.w3.org/2000/svg">
<path d="M9.50008 9.375C8.76521 9.375 8.06044 9.65156 7.54081 10.1438C7.02117 10.6361 6.72925 11.3038 6.72925 12C6.72925 12.6962 7.02117 13.3639 7.54081 13.8562C8.06044 14.3484 8.76521 14.625 9.50008 14.625C10.235 14.625 10.9397 14.3484 11.4594 13.8562C11.979 13.3639 12.2709 12.6962 12.2709 12C12.2709 11.3038 11.979 10.6361 11.4594 10.1438C10.9397 9.65156 10.235 9.375 9.50008 9.375ZM8.31258 12C8.31258 11.7016 8.43769 11.4155 8.66039 11.2045C8.88309 10.9935 9.18514 10.875 9.50008 10.875C9.81503 10.875 10.1171 10.9935 10.3398 11.2045C10.5625 11.4155 10.6876 11.7016 10.6876 12C10.6876 12.2984 10.5625 12.5845 10.3398 12.7955C10.1171 13.0065 9.81503 13.125 9.50008 13.125C9.18514 13.125 8.88309 13.0065 8.66039 12.7955C8.43769 12.5845 8.31258 12.2984 8.31258 12Z" fill="#52896E"/>
<path d="M13.8747 3.837L11.358 0.494247L2.10425 7.49775L1.59125 7.4925V7.5H1.1875V16.5H17.8125V7.5H17.0509L15.5357 3.30075L13.8747 3.837ZM15.3781 7.5H7.43929L13.3523 5.5905L14.5572 5.22525L15.3781 7.5ZM12.3104 4.3425L6.20667 6.3135L11.0406 2.655L12.3104 4.3425ZM2.77083 13.6267V10.3717C3.10483 10.2596 3.40821 10.0783 3.65884 9.84098C3.90947 9.60367 4.10104 9.31636 4.21958 9H14.7804C14.8989 9.31647 15.0904 9.6039 15.3411 9.84134C15.5917 10.0788 15.8951 10.2602 16.2292 10.3725V13.6275C15.8951 13.7397 15.5917 13.9212 15.3411 14.1586C15.0904 14.3961 14.8989 14.6835 14.7804 15H4.22117C4.10256 14.6833 3.91081 14.3956 3.65989 14.158C3.40898 13.9204 3.10523 13.7389 2.77083 13.6267Z" fill="#52896E"/>
</svg>
