<svg width="15" height="14" viewBox="0 0 15 14" fill="none" xmlns="http://www.w3.org/2000/svg">
<path d="M7.5 5.25C7.00272 5.25 6.52581 5.43437 6.17417 5.76256C5.82254 6.09075 5.625 6.53587 5.625 7C5.625 7.46413 5.82254 7.90925 6.17417 8.23744C6.52581 8.56563 7.00272 8.75 7.5 8.75C7.99728 8.75 8.47419 8.56563 8.82583 8.23744C9.17746 7.90925 9.375 7.46413 9.375 7C9.375 6.53587 9.17746 6.09075 8.82583 5.76256C8.47419 5.43437 7.99728 5.25 7.5 5.25ZM7.5 9.91667C6.6712 9.91667 5.87634 9.60938 5.29029 9.06239C4.70424 8.51541 4.375 7.77355 4.375 7C4.375 6.22645 4.70424 5.48459 5.29029 4.93761C5.87634 4.39062 6.6712 4.08333 7.5 4.08333C8.3288 4.08333 9.12366 4.39062 9.70971 4.93761C10.2958 5.48459 10.625 6.22645 10.625 7C10.625 7.77355 10.2958 8.51541 9.70971 9.06239C9.12366 9.60938 8.3288 9.91667 7.5 9.91667ZM7.5 2.625C4.375 2.625 1.70625 4.43917 0.625 7C1.70625 9.56083 4.375 11.375 7.5 11.375C10.625 11.375 13.2937 9.56083 14.375 7C13.2937 4.43917 10.625 2.625 7.5 2.625Z" fill="white"/>
</svg>
