<svg width="30" height="30" viewBox="0 0 30 30" fill="none" xmlns="http://www.w3.org/2000/svg">
<path d="M4.57932 25.7893C3.14667 24.4056 2.00394 22.7505 1.2178 20.9204C0.431667 19.0903 0.0178736 17.122 0.000566351 15.1303C-0.0167409 13.1387 0.362785 11.1635 1.117 9.32001C1.87121 7.47657 2.98501 5.80179 4.3934 4.3934C5.80179 2.98501 7.47657 1.87121 9.32001 1.117C11.1635 0.362785 13.1387 -0.0167409 15.1303 0.000566351C17.122 0.0178736 19.0903 0.431667 20.9204 1.2178C22.7505 2.00394 24.4056 3.14667 25.7893 4.57932C28.5217 7.40836 30.0336 11.1974 29.9994 15.1303C29.9653 19.0633 28.3877 22.8255 25.6066 25.6066C22.8255 28.3877 19.0633 29.9653 15.1303 29.9994C11.1974 30.0336 7.40836 28.5217 4.57932 25.7893ZM23.6743 23.6743C25.926 21.4226 27.191 18.3687 27.191 15.1843C27.191 12 25.926 8.94601 23.6743 6.69432C21.4226 4.44264 18.3687 3.17765 15.1843 3.17765C12 3.17765 8.94601 4.44264 6.69432 6.69432C4.44264 8.94601 3.17765 12 3.17765 15.1843C3.17765 18.3687 4.44264 21.4226 6.69432 23.6743C8.94601 25.926 12 27.191 15.1843 27.191C18.3687 27.191 21.4226 25.926 23.6743 23.6743ZM10.6843 9.18432L22.6843 15.1843L10.6843 21.1843V9.18432Z" fill="#01821D"/>
</svg>
