<svg width="16" height="16" viewBox="0 0 16 16" fill="none" xmlns="http://www.w3.org/2000/svg">
<path fill-rule="evenodd" clip-rule="evenodd" d="M8.66184 13.3339C8.5682 13.2407 8.51537 13.1142 8.51494 12.9822C8.51452 12.8501 8.56653 12.7233 8.65956 12.6295L12.7794 8.48287L2.021 8.5177C1.88882 8.51813 1.76188 8.46603 1.66812 8.37287C1.57435 8.27971 1.52143 8.15311 1.521 8.02093C1.52057 7.88875 1.57267 7.76182 1.66583 7.66805C1.759 7.57428 1.88559 7.52136 2.01777 7.52094L12.7762 7.4861L8.62956 3.36623C8.58045 3.32076 8.541 3.26586 8.51356 3.20482C8.48612 3.14377 8.47126 3.07782 8.46986 3.01091C8.46847 2.94399 8.48056 2.87748 8.50543 2.81535C8.53029 2.75321 8.56742 2.69671 8.61459 2.64923C8.66176 2.60175 8.71801 2.56426 8.77999 2.539C8.84197 2.51373 8.9084 2.5012 8.97532 2.50217C9.04224 2.50313 9.10828 2.51757 9.16951 2.54461C9.23073 2.57165 9.28588 2.61074 9.33166 2.65956L14.3316 7.62726C14.4253 7.7204 14.4781 7.8469 14.4785 7.97898C14.479 8.11105 14.4269 8.23789 14.3339 8.33164L9.36622 13.3316C9.27307 13.4252 9.14657 13.4781 9.0145 13.4785C8.88243 13.4789 8.75559 13.4269 8.66184 13.3339Z" fill="#52896E"/>
</svg>
