<svg width="48" height="48" viewBox="0 0 48 48" fill="none" xmlns="http://www.w3.org/2000/svg">
<path fill-rule="evenodd" clip-rule="evenodd" d="M13 6C12.4696 6 11.9609 6.21071 11.5858 6.58579C11.2107 6.96086 11 7.46957 11 8V9H6V28H28V9H23V8C23 7.46957 22.7893 6.96086 22.4142 6.58579C22.0391 6.21071 21.5304 6 21 6H13ZM21 18C21.5304 18 22.0391 17.7893 22.4142 17.4142C22.7893 17.0391 23 16.5304 23 16V15H26V26H21V20H13V26H8V15H11V16C11 16.5304 11.2107 17.0391 11.5858 17.4142C11.9609 17.7893 12.4696 18 13 18H21ZM8 11H11V13H8V11ZM26 13H23V11H26V13ZM19 22V26H15V22H19ZM16 8V11H13V13H16V16H18V13H21V11H18V8H16Z" fill="#52896E"/>
<path d="M30 27C30 25.9391 30.4214 24.9217 31.1715 24.1716C31.9217 23.4214 32.9391 23 34 23C35.0608 23 36.0783 23.4214 36.8284 24.1716C37.5785 24.9217 38 25.9391 38 27C38 28.0609 37.5785 29.0783 36.8284 29.8284C36.0783 30.5786 35.0608 31 34 31C32.9391 31 31.9217 30.5786 31.1715 29.8284C30.4214 29.0783 30 28.0609 30 27ZM34 33C31.33 33 26 34.462 26 37.364V40H17C16.271 40 15.798 39.737 15.497 39.398C15.18 39.041 15 38.537 15 38V34.414L18.293 37.707L19.707 36.293L14 30.586L8.29297 36.293L9.70697 37.707L13 34.414V38C13 38.963 13.32 39.959 14.003 40.727C14.702 41.513 15.729 42 17 42H42V37.364C42 34.462 36.67 33 34 33Z" fill="#52896E"/>
</svg>
