<svg width="24" height="24" viewBox="0 0 24 24" fill="none" xmlns="http://www.w3.org/2000/svg">
<path d="M11.9999 23.1429C17.9999 23.1429 22.2857 21.0206 22.2857 16.296C22.2857 11.1617 19.7142 7.73829 14.5714 5.17029L16.5942 2.568C16.6973 2.39731 16.7532 2.20235 16.7564 2.003C16.7595 1.80365 16.7098 1.60702 16.6122 1.43315C16.5146 1.25927 16.3727 1.11436 16.2009 1.01318C16.0292 0.912001 15.8336 0.858161 15.6342 0.857147H8.36566C8.16671 0.859216 7.97182 0.913712 7.80065 1.01514C7.62948 1.11657 7.48808 1.26134 7.39072 1.43485C7.29336 1.60837 7.24347 1.80449 7.24609 2.00343C7.24872 2.20238 7.30376 2.39712 7.40566 2.568L9.42852 5.18743C4.28566 7.77258 1.71423 11.196 1.71423 16.3303C1.71423 21.0206 5.99995 23.1429 11.9999 23.1429Z" stroke="#52896E" stroke-linecap="round" stroke-linejoin="round"/>
<path d="M14.3708 11.6674C14.243 11.3049 14.0059 10.9909 13.692 10.7689C13.3782 10.5469 13.0032 10.4278 12.6188 10.428H11.1822C10.7729 10.4272 10.3778 10.5778 10.0729 10.851C9.76799 11.1241 9.57493 11.5003 9.53087 11.9073C9.48682 12.3142 9.59488 12.7231 9.83425 13.0551C10.0736 13.3872 10.4274 13.6189 10.8274 13.7057L13.0165 14.1857C13.4626 14.2852 13.8564 14.5456 14.1226 14.9171C14.3888 15.2886 14.5087 15.7452 14.4595 16.1995C14.4103 16.6539 14.1954 17.0742 13.8558 17.3801C13.5162 17.686 13.0758 17.856 12.6188 17.8577H11.3828C10.5737 17.8577 9.88624 17.34 9.63081 16.62M12 10.428V8.57143M12 19.7143V17.8577" stroke="#52896E" stroke-linecap="round" stroke-linejoin="round"/>
</svg>
