<svg width="50" height="49" viewBox="0 0 50 49" fill="none" xmlns="http://www.w3.org/2000/svg">
<path d="M11.8055 41.5139V38.7917C11.8055 35.393 15.2833 32.6667 18.75 32.6667C22.9167 36.0694 27.0833 36.0694 31.25 32.6667C34.718 32.6667 38.1944 35.393 38.1944 38.7917V41.5139" fill="#92D3F5"/>
<path d="M18.0556 26.5417C15.2778 26.5417 15.2778 22.4583 15.2778 17.6944C15.2778 12.9305 18.0556 8.16666 25.0001 8.16666C31.9445 8.16666 34.7223 12.9305 34.7223 17.6944C34.7223 22.4583 34.7223 26.5417 31.9445 26.5417" fill="#F1B31C"/>
<path d="M17.3167 21.0972C17.3167 27.2222 20.7451 30.625 24.9555 30.625C29.0785 30.625 32.6389 27.2222 32.6389 21.0972C32.6389 19.0556 31.9444 17.6944 31.9444 17.6944C29.8611 15.6528 27.0833 12.25 27.0833 12.25C24.3055 14.2917 22.2222 16.3333 18.0555 17.0139C18.0555 17.0139 17.3167 17.6944 17.3167 21.0972Z" fill="#FCEA2B"/>
<path d="M18.0555 26.5417C15.2778 26.5417 15.2778 22.4583 15.2778 17.6944C15.2778 12.9305 18.0555 8.16666 25 8.16666C31.9444 8.16666 34.7222 12.9305 34.7222 17.6944C34.7222 22.4583 34.7222 26.5417 31.9444 26.5417M11.8055 40.8333V38.7917C11.8055 35.393 15.2833 32.6667 18.75 32.6667C22.9167 36.0694 27.0833 36.0694 31.25 32.6667C34.718 32.6667 38.1944 35.393 38.1944 38.7917V40.8333" stroke="black" stroke-width="2" stroke-linecap="round" stroke-linejoin="round"/>
<path d="M29.0785 20.4167C29.0785 20.7776 28.9321 21.1238 28.6717 21.3791C28.4112 21.6344 28.0579 21.7778 27.6896 21.7778C27.3212 21.7778 26.9679 21.6344 26.7075 21.3791C26.447 21.1238 26.3007 20.7776 26.3007 20.4167C26.3007 20.0557 26.447 19.7095 26.7075 19.4542C26.9679 19.1989 27.3212 19.0555 27.6896 19.0555C28.0579 19.0555 28.4112 19.1989 28.6717 19.4542C28.9321 19.7095 29.0785 20.0557 29.0785 20.4167ZM23.5229 20.4167C23.5229 20.7776 23.3766 21.1238 23.1161 21.3791C22.8556 21.6344 22.5024 21.7778 22.134 21.7778C21.7656 21.7778 21.4124 21.6344 21.1519 21.3791C20.8914 21.1238 20.7451 20.7776 20.7451 20.4167C20.7451 20.0557 20.8914 19.7095 21.1519 19.4542C21.4124 19.1989 21.7656 19.0555 22.134 19.0555C22.5024 19.0555 22.8556 19.1989 23.1161 19.4542C23.3766 19.7095 23.5229 20.0557 23.5229 20.4167Z" fill="black"/>
<path d="M17.3167 21.0972C17.3167 27.2222 20.7451 30.625 24.9555 30.625C29.0785 30.625 32.6389 27.2222 32.6389 21.0972C32.6389 19.0556 31.9444 17.6944 31.9444 17.6944C29.8611 15.6528 27.0833 12.25 27.0833 12.25C24.3055 14.2917 22.2222 16.3333 18.0555 17.0139C18.0555 17.0139 17.3167 17.6944 17.3167 21.0972Z" stroke="black" stroke-width="2" stroke-linejoin="round"/>
<path d="M22.9166 25.8611C24.2625 26.5002 25.6944 26.5417 27.0833 25.8611" stroke="black" stroke-width="2" stroke-linecap="round" stroke-linejoin="round"/>
</svg>
