<svg width="24" height="24" viewBox="0 0 24 24" fill="none" xmlns="http://www.w3.org/2000/svg">
<path d="M22.9091 0H1.09091C0.801582 0 0.524105 0.126428 0.31952 0.351472C0.114935 0.576515 0 0.88174 0 1.2V10.8C0 11.1183 0.114935 11.4235 0.31952 11.6485C0.524105 11.8736 0.801582 12 1.09091 12H4.36364V22.8C4.36364 23.1183 4.47857 23.4235 4.68316 23.6485C4.88774 23.8736 5.16522 24 5.45455 24H18.5455C18.8348 24 19.1123 23.8736 19.3168 23.6485C19.5214 23.4235 19.6364 23.1183 19.6364 22.8V12H22.9091C23.1984 12 23.4759 11.8736 23.6805 11.6485C23.8851 11.4235 24 11.1183 24 10.8V1.2C24 0.88174 23.8851 0.576515 23.6805 0.351472C23.4759 0.126428 23.1984 0 22.9091 0ZM6.54545 21.6V19.2C7.12411 19.2 7.67906 19.4529 8.08823 19.9029C8.4974 20.353 8.72727 20.9635 8.72727 21.6H6.54545ZM17.4545 21.6H15.2727C15.2727 20.9635 15.5026 20.353 15.9118 19.9029C16.3209 19.4529 16.8759 19.2 17.4545 19.2V21.6ZM17.4545 16.8C16.2972 16.8 15.1873 17.3057 14.369 18.2059C13.5506 19.1061 13.0909 20.327 13.0909 21.6H10.9091C10.9091 20.327 10.4494 19.1061 9.63101 18.2059C8.81267 17.3057 7.70276 16.8 6.54545 16.8V7.2H17.4545V16.8ZM21.8182 9.6H19.6364V6C19.6364 5.68174 19.5214 5.37652 19.3168 5.15147C19.1123 4.92643 18.8348 4.8 18.5455 4.8H5.45455C5.16522 4.8 4.88774 4.92643 4.68316 5.15147C4.47857 5.37652 4.36364 5.68174 4.36364 6V9.6H2.18182V2.4H21.8182V9.6ZM12 15.6C12.6473 15.6 13.28 15.3889 13.8182 14.9933C14.3564 14.5977 14.7759 14.0355 15.0236 13.3777C15.2713 12.7198 15.3361 11.996 15.2098 11.2977C15.0836 10.5993 14.7719 9.95788 14.3142 9.45442C13.8565 8.95095 13.2733 8.60808 12.6385 8.46917C12.0036 8.33027 11.3456 8.40156 10.7476 8.67403C10.1496 8.94651 9.63844 9.40793 9.27883 9.99995C8.91922 10.592 8.72727 11.288 8.72727 12C8.72727 12.9548 9.07208 13.8705 9.68583 14.5456C10.2996 15.2207 11.132 15.6 12 15.6ZM12 10.8C12.2158 10.8 12.4267 10.8704 12.6061 11.0022C12.7855 11.1341 12.9253 11.3215 13.0079 11.5408C13.0904 11.7601 13.112 12.0013 13.0699 12.2341C13.0279 12.4669 12.924 12.6807 12.7714 12.8485C12.6188 13.0164 12.4244 13.1306 12.2128 13.1769C12.0012 13.2232 11.7819 13.1995 11.5825 13.1087C11.3832 13.0178 11.2128 12.864 11.0929 12.6667C10.9731 12.4693 10.9091 12.2373 10.9091 12C10.9091 11.6817 11.024 11.3765 11.2286 11.1515C11.4332 10.9264 11.7107 10.8 12 10.8Z" fill="#52896E"/>
</svg>
