<svg width="24" height="24" viewBox="0 0 24 24" fill="none" xmlns="http://www.w3.org/2000/svg">
<path fill-rule="evenodd" clip-rule="evenodd" d="M22 8.293C22 11.769 19.17 14.587 15.68 14.587C15.044 14.587 13.594 14.441 12.889 13.855L12.007 14.733C11.488 15.25 11.628 15.402 11.859 15.652C11.955 15.757 12.067 15.878 12.154 16.051C12.154 16.051 12.889 17.075 12.154 18.1C11.713 18.685 10.478 19.504 9.06802 18.1L8.77402 18.392C8.77402 18.392 9.65502 19.417 8.92102 20.442C8.48002 21.027 7.30402 21.612 6.27502 20.588L5.24702 21.612C4.54102 22.315 3.67902 21.905 3.33702 21.612L2.45402 20.734C1.63102 19.914 2.11102 19.026 2.45402 18.684L10.096 11.074C10.096 11.074 9.36102 9.904 9.36102 8.294C9.36102 4.818 12.191 2 15.681 2C19.171 2 22 4.818 22 8.293ZM15.681 10.489C16.2643 10.4901 16.8242 10.2594 17.2375 9.84782C17.6508 9.4362 17.8837 8.8773 17.885 8.294C17.8845 8.00509 17.8271 7.71912 17.716 7.4524C17.605 7.18568 17.4425 6.94345 17.2378 6.73954C17.0332 6.53562 16.7903 6.37401 16.5232 6.26393C16.2561 6.15386 15.9699 6.09747 15.681 6.098C15.3921 6.09747 15.1059 6.15386 14.8388 6.26393C14.5717 6.37401 14.3289 6.53562 14.1242 6.73954C13.9195 6.94345 13.7571 7.18568 13.646 7.4524C13.535 7.71912 13.4775 8.00509 13.477 8.294C13.4783 8.8773 13.7113 9.4362 14.1246 9.84782C14.5379 10.2594 15.0977 10.4901 15.681 10.489Z" fill="#52896E"/>
</svg>
