<svg width="15" height="15" viewBox="0 0 15 15" fill="none" xmlns="http://www.w3.org/2000/svg">
<path d="M11.25 13.75C10.7292 13.75 10.2865 13.5677 9.92188 13.2031C9.55729 12.8385 9.375 12.3958 9.375 11.875C9.375 11.8021 9.38021 11.7265 9.39062 11.6481C9.40104 11.5698 9.41667 11.4996 9.4375 11.4375L5.03125 8.875C4.85417 9.03125 4.65625 9.15375 4.4375 9.2425C4.21875 9.33125 3.98958 9.37542 3.75 9.375C3.22917 9.375 2.78646 9.19271 2.42188 8.82812C2.05729 8.46354 1.875 8.02083 1.875 7.5C1.875 6.97917 2.05729 6.53646 2.42188 6.17188C2.78646 5.80729 3.22917 5.625 3.75 5.625C3.98958 5.625 4.21875 5.66938 4.4375 5.75813C4.65625 5.84688 4.85417 5.96917 5.03125 6.125L9.4375 3.5625C9.41667 3.5 9.40104 3.42979 9.39062 3.35187C9.38021 3.27396 9.375 3.19833 9.375 3.125C9.375 2.60417 9.55729 2.16146 9.92188 1.79688C10.2865 1.43229 10.7292 1.25 11.25 1.25C11.7708 1.25 12.2135 1.43229 12.5781 1.79688C12.9427 2.16146 13.125 2.60417 13.125 3.125C13.125 3.64583 12.9427 4.08854 12.5781 4.45312C12.2135 4.81771 11.7708 5 11.25 5C11.0104 5 10.7812 4.95583 10.5625 4.8675C10.3438 4.77917 10.1458 4.65667 9.96875 4.5L5.5625 7.0625C5.58333 7.125 5.59896 7.19542 5.60938 7.27375C5.61979 7.35208 5.625 7.4275 5.625 7.5C5.625 7.57292 5.61979 7.64854 5.60938 7.72687C5.59896 7.80521 5.58333 7.87542 5.5625 7.9375L9.96875 10.5C10.1458 10.3438 10.3438 10.2215 10.5625 10.1331C10.7812 10.0448 11.0104 10.0004 11.25 10C11.7708 10 12.2135 10.1823 12.5781 10.5469C12.9427 10.9115 13.125 11.3542 13.125 11.875C13.125 12.3958 12.9427 12.8385 12.5781 13.2031C12.2135 13.5677 11.7708 13.75 11.25 13.75Z" fill="#52896E"/>
</svg>
