<svg width="19" height="18" viewBox="0 0 19 18" fill="none" xmlns="http://www.w3.org/2000/svg">
<g clip-path="url(#clip0_118_8)">
<path d="M12.6667 12C12.6667 11.1712 10.1857 10.5 7.12508 10.5M12.6667 12C12.6667 12.8288 10.1857 13.5 7.12508 13.5C4.0645 13.5 1.58341 12.8288 1.58341 12M12.6667 12V15.7028C12.6667 16.557 10.1857 17.25 7.12508 17.25C4.0645 17.25 1.58341 16.5578 1.58341 15.7028V12M12.6667 12C15.6941 12 18.2084 11.2598 18.2084 10.5V3M7.12508 10.5C4.0645 10.5 1.58341 11.1712 1.58341 12M7.12508 10.5C3.6275 10.5 0.791748 9.75975 0.791748 9V5.25M7.12508 3.75C3.6275 3.75 0.791748 4.42125 0.791748 5.25M0.791748 5.25C0.791748 6.07875 3.6275 6.75 7.12508 6.75C7.12508 7.50975 9.70037 8.25 12.7277 8.25C15.7542 8.25 18.2084 7.50975 18.2084 6.75M18.2084 3C18.2084 2.17125 15.7542 1.5 12.7277 1.5C9.70037 1.5 7.247 2.17125 7.247 3M18.2084 3C18.2084 3.82875 15.7542 4.5 12.7277 4.5C9.70116 4.5 7.247 3.82875 7.247 3M7.247 3V10.6245" stroke="#52896E" stroke-width="2"/>
</g>
<defs>
<clipPath id="clip0_118_8">
<rect width="19" height="18" fill="white"/>
</clipPath>
</defs>
</svg>
